<?xml version="1.0" encoding="iso-8859-1"?>
<!-- Generator: Adobe Illustrator 19.0.0, SVG Export Plug-In . SVG Version: 6.00 Build 0)  -->
<svg version="1.1" id="Layer_1" xmlns="http://www.w3.org/2000/svg" xmlns:xlink="http://www.w3.org/1999/xlink" x="0px" y="0px"
	 viewBox="0 0 512.007 512.007" style="enable-background:new 0 0 512.007 512.007;" xml:space="preserve">
<path style="fill:#ED5564;" d="M12.501,20.091c16.652-16.668,43.662-16.668,60.314,0L389.539,336.8l-60.33,60.314L12.501,80.405
	C-4.167,63.753-4.167,36.743,12.501,20.091z"/>
<path style="fill:#DA4453;" d="M29.403,52.084c4.171-4.171,10.919-4.171,15.09,0l322.879,322.879c4.154,4.155,4.154,10.904,0,15.075
	c-2.094,2.077-4.812,3.124-7.545,3.124c-2.734,0-5.453-1.047-7.546-3.124L29.403,67.158C25.248,62.987,25.248,56.239,29.403,52.084z
	"/>
<path style="fill:#656D78;" d="M317.837,406.378c0,90.838,133.938,98.04,178.241,98.04c44.286,0-17.824-53.738-17.824-98.04
	c0-44.303-35.914-80.2-80.217-80.2S317.837,362.075,317.837,406.378z"/>
<path style="fill:#434A54;" d="M496.078,504.418c-44.303,0-178.241-7.202-178.241-98.04c0-12.278,2.765-23.917,7.687-34.32
	c0.016,0,6.764,114.989,185.848,117.707l0,0C513.573,498.825,510.356,504.418,496.078,504.418z"/>
<path style="fill:#F6BB42;" d="M493.203,18.795c-24.994-24.979-65.5-24.979-90.495,0l0,0l0,0L0.066,421.452v90.495h90.479
	l402.658-402.658C518.197,84.295,518.197,43.789,493.203,18.795z"/>
<path style="fill:#EC87C0;" d="M478.129,124.364l15.074-15.075c24.994-24.994,24.994-65.5,0-90.494
	c-24.994-24.979-65.5-24.979-90.495,0l0,0l-15.074,15.09L478.129,124.364z"/>
<path style="fill:#FFCE54;" d="M425.406,71.657L75.533,421.515l0,0c-4.155,4.171-4.155,10.92,0,15.091
	c4.171,4.155,10.919,4.155,15.09,0L440.481,86.733L425.406,71.657z"/>
<polygon style="fill:#FFE5AB;" points="0.066,421.452 0.066,511.947 90.546,511.947 "/>
<polygon style="fill:#E6E9ED;" points="417.861,184.757 327.366,94.277 387.695,33.947 478.192,124.442 "/>
<g>
	<path style="fill:#CCD1D9;" d="M380.166,71.657l-15.09-15.09c-0.016-0.016-0.047-0.031-0.062-0.062L349.94,71.579
		c0.016,0.031,0.031,0.047,0.062,0.078l15.074,15.075c4.171,4.171,10.92,4.171,15.09,0
		C384.322,82.577,384.322,75.813,380.166,71.657z"/>
	<path style="fill:#CCD1D9;" d="M425.266,146.922l15.09,15.09c0.016,0.016,0.047,0.031,0.062,0.062L455.493,147
		c-0.016-0.031-0.031-0.047-0.062-0.078l-15.075-15.075c-4.17-4.171-10.919-4.171-15.09,0
		C421.11,136.002,421.11,142.767,425.266,146.922z"/>
</g>
<polygon style="fill:#656D78;" points="0.066,481.782 0.066,511.947 30.232,511.947 "/>
<g>
</g>
<g>
</g>
<g>
</g>
<g>
</g>
<g>
</g>
<g>
</g>
<g>
</g>
<g>
</g>
<g>
</g>
<g>
</g>
<g>
</g>
<g>
</g>
<g>
</g>
<g>
</g>
<g>
</g>
</svg>
